<svg viewBox="0 0 800 450" xmlns="http://www.w3.org/2000/svg">
    <rect width="800" height="450" fill="#0d1117" />
    <defs>
        <marker id="arrow-white" markerWidth="10" markerHeight="10" refX="9" refY="3" orient="auto" markerUnits="strokeWidth">
            <path d="M0,0 L0,6 L9,3 z" fill="#ffffff" />
        </marker>
        <marker id="diamond" markerWidth="12" markerHeight="12" refX="6" refY="6" orient="auto">
            <path d="M 0 6 L 6 0 L 12 6 L 6 12 Z" fill="#8b949e" />
        </marker>
    </defs>

    <text x="400" y="40" fill="#ffffff" font-family="monospace" font-size="20" text-anchor="middle" font-weight="bold">CACHE SYSTEM ABSTRACTION</text>
    <text x="400" y="65" fill="#8b949e" font-family="monospace" font-size="12" text-anchor="middle">internal-courier-api/src/main/java/org/tavall/couriers/api/cache</text>

    <rect x="250" y="100" width="300" height="100" rx="4" fill="#161b22" stroke="#d29922" stroke-width="2"/>
    <text x="400" y="130" fill="#d29922" font-family="monospace" font-size="16" text-anchor="middle" font-weight="bold">AbstractCache&lt;K, V&gt;</text>
    <line x1="260" y1="140" x2="540" y2="140" stroke="#30363d" stroke-width="1"/>

    <text x="270" y="160" fill="#c9d1d9" font-family="monospace" font-size="12">• Enforces TTL (Time To Live)</text>
    <text x="270" y="180" fill="#c9d1d9" font-family="monospace" font-size="12">• Thread-Safe Map Management</text>

    <rect x="50" y="120" width="140" height="60" rx="4" fill="#21262d" stroke="#8b949e" stroke-width="1"/>
    <text x="120" y="145" fill="#ffffff" font-family="monospace" font-size="12" text-anchor="middle" font-weight="bold">CacheKey</text>
    <text x="120" y="165" fill="#8b949e" font-family="monospace" font-size="10" text-anchor="middle">(Composite ID)</text>

    <rect x="610" y="120" width="140" height="60" rx="4" fill="#21262d" stroke="#8b949e" stroke-width="1"/>
    <text x="680" y="145" fill="#ffffff" font-family="monospace" font-size="12" text-anchor="middle" font-weight="bold">CacheValue</text>
    <text x="680" y="165" fill="#8b949e" font-family="monospace" font-size="10" text-anchor="middle">(Generic Data)</text>

    <line x1="190" y1="150" x2="250" y2="150" stroke="#8b949e" stroke-width="1" stroke-dasharray="4"/>
    <line x1="610" y1="150" x2="550" y2="150" stroke="#8b949e" stroke-width="1" stroke-dasharray="4"/>

    <rect x="150" y="300" width="200" height="80" rx="4" fill="#238636" fill-opacity="0.2" stroke="#238636" stroke-width="2"/>
    <text x="250" y="330" fill="#2ea043" font-family="monospace" font-size="14" text-anchor="middle" font-weight="bold">ScanResponseCache</text>
    <text x="250" y="355" fill="#c9d1d9" font-family="monospace" font-size="11" text-anchor="middle">Stores Gemini Results</text>
    <text x="250" y="370" fill="#8b949e" font-family="monospace" font-size="10" text-anchor="middle">TTL: Short (Session)</text>

    <rect x="450" y="300" width="200" height="80" rx="4" fill="#1f6feb" fill-opacity="0.2" stroke="#1f6feb" stroke-width="2"/>
    <text x="550" y="330" fill="#58a6ff" font-family="monospace" font-size="14" text-anchor="middle" font-weight="bold">DeliveryStateCache</text>
    <text x="550" y="355" fill="#c9d1d9" font-family="monospace" font-size="11" text-anchor="middle">Stores Package Status</text>
    <text x="550" y="370" fill="#8b949e" font-family="monospace" font-size="10" text-anchor="middle">TTL: Long (Day)</text>

    <line x1="250" y1="300" x2="350" y2="200" stroke="#ffffff" stroke-width="2" marker-end="url(#arrow-white)"/>
    <line x1="550" y1="300" x2="450" y2="200" stroke="#ffffff" stroke-width="2" marker-end="url(#arrow-white)"/>

    <rect x="350" y="230" width="100" height="30" rx="15" fill="#0d1117" stroke="#8b949e" stroke-width="1"/>
    <text x="400" y="250" fill="#8b949e" font-family="monospace" font-size="10" text-anchor="middle">Extends</text>

</svg>