<svg viewBox="0 0 500 450" xmlns="http://www.w3.org/2000/svg">
    <rect width="500" height="450" fill="#0d1117" />
    <defs>
        <marker id="arrow-down" markerWidth="10" markerHeight="10" refX="9" refY="3" orient="auto" markerUnits="strokeWidth">
            <path d="M0,0 L0,6 L9,3 z" fill="#8b949e" />
        </marker>
        <marker id="arrow-right" markerWidth="10" markerHeight="10" refX="9" refY="3" orient="auto" markerUnits="strokeWidth">
            <path d="M0,0 L0,6 L9,3 z" fill="#8b949e" />
        </marker>
    </defs>

    <text x="250" y="40" fill="#ffffff" font-family="monospace" font-size="20" text-anchor="middle" font-weight="bold">BUCKET DATA STRUCTURE</text>

    <rect x="50" y="100" width="180" height="80" rx="4" fill="#d29922" fill-opacity="0.2" stroke="#d29922" stroke-width="2"/>
    <text x="140" y="130" fill="#d29922" font-family="monospace" font-size="14" text-anchor="middle" font-weight="bold">CacheKey</text>
    <text x="140" y="155" fill="#c9d1d9" font-family="monospace" font-size="10" text-anchor="middle">ID: 101, Domain: USER</text>

    <line x1="230" y1="140" x2="270" y2="140" stroke="#8b949e" stroke-width="2" marker-end="url(#arrow-right)"/>

    <rect x="280" y="70" width="170" height="140" rx="4" fill="#1f6feb" fill-opacity="0.1" stroke="#58a6ff" stroke-width="2" stroke-dasharray="5,5"/>
    <text x="365" y="95" fill="#58a6ff" font-family="monospace" font-size="12" text-anchor="middle" font-weight="bold">Bucket (List)</text>

    <rect x="295" y="110" width="140" height="25" rx="2" fill="#a371f7" fill-opacity="0.4" stroke="#a371f7"/>
    <text x="365" y="127" fill="#fff" font-family="monospace" font-size="10" text-anchor="middle">CacheValue A</text>

    <rect x="295" y="140" width="140" height="25" rx="2" fill="#a371f7" fill-opacity="0.4" stroke="#a371f7"/>
    <text x="365" y="157" fill="#fff" font-family="monospace" font-size="10" text-anchor="middle">CacheValue B</text>

    <rect x="295" y="170" width="140" height="25" rx="2" fill="#a371f7" fill-opacity="0.4" stroke="#a371f7"/>
    <text x="365" y="187" fill="#fff" font-family="monospace" font-size="10" text-anchor="middle">CacheValue C</text>

    <line x1="365" y1="210" x2="365" y2="250" stroke="#8b949e" stroke-width="2" marker-end="url(#arrow-down)"/>

    <rect x="100" y="250" width="300" height="80" rx="4" fill="#2ea043" fill-opacity="0.2" stroke="#2ea043" stroke-width="2"/>
    <text x="250" y="280" fill="#2ea043" font-family="monospace" font-size="16" text-anchor="middle" font-weight="bold">Retrieval</text>
    <text x="250" y="305" fill="#c9d1d9" font-family="monospace" font-size="12" text-anchor="middle">Returns List&lt;ICacheValue&gt;</text>
    <text x="250" y="320" fill="#c9d1d9" font-family="monospace" font-size="10" text-anchor="middle">(Thread Safe Copy)</text>

</svg>