<svg viewBox="0 0 800 450" xmlns="http://www.w3.org/2000/svg">
    <rect width="800" height="450" fill="#0d1117" />

    <text x="400" y="40" fill="#ffffff" font-family="monospace" font-size="20" text-anchor="middle" font-weight="bold">ARCHITECTURE DECISION: CLIENT SEPARATION</text>

    <text x="200" y="80" fill="#ff7b72" font-family="monospace" font-size="14" text-anchor="middle" font-weight="bold">REJECTED: "GOD CLASS"</text>
    <rect x="50" y="100" width="300" height="300" rx="4" fill="#161b22" stroke="#ff7b72" stroke-width="2" stroke-dasharray="5"/>

    <text x="80" y="140" fill="#8b949e" font-family="monospace" font-size="12">Input: Image?</text>
    <text x="80" y="160" fill="#8b949e" font-family="monospace" font-size="12">Input: Text?</text>
    <text x="80" y="180" fill="#8b949e" font-family="monospace" font-size="12">Input: Video?</text>

    <rect x="150" y="200" width="150" height="150" rx="50" fill="#4c0519" stroke="#ff7b72" stroke-width="2"/>
    <text x="225" y="260" fill="#ff7b72" font-family="monospace" font-size="14" text-anchor="middle" font-weight="bold">GeminiService</text>
    <text x="225" y="280" fill="#ff7b72" font-family="monospace" font-size="10" text-anchor="middle">"Handles Everything"</text>
    <text x="225" y="300" fill="#ff7b72" font-family="monospace" font-size="10" text-anchor="middle">(Flag Hell)</text>

    <path d="M 120 140 L 160 220" stroke="#8b949e" stroke-width="1"/>
    <path d="M 120 160 L 200 200" stroke="#8b949e" stroke-width="1"/>
    <path d="M 120 180 L 250 220" stroke="#8b949e" stroke-width="1"/>


    <text x="600" y="80" fill="#238636" font-family="monospace" font-size="14" text-anchor="middle" font-weight="bold">ADOPTED: DEDICATED CLIENTS</text>
    <rect x="450" y="100" width="300" height="300" rx="4" fill="#161b22" stroke="#238636" stroke-width="2"/>

    <text x="470" y="150" fill="#c9d1d9" font-family="monospace" font-size="12">Image Data</text>
    <line x1="550" y1="145" x2="600" y2="145" stroke="#238636" stroke-width="2" marker-end="url(#arrow-white)"/>
    <rect x="600" y="125" width="130" height="40" rx="4" fill="#238636" fill-opacity="0.2" stroke="#238636" stroke-width="2"/>
    <text x="665" y="150" fill="#c9d1d9" font-family="monospace" font-size="11" text-anchor="middle">ImageClient</text>

    <text x="470" y="220" fill="#c9d1d9" font-family="monospace" font-size="12">Text Prompt</text>
    <line x1="550" y1="215" x2="600" y2="215" stroke="#238636" stroke-width="2" marker-end="url(#arrow-white)"/>
    <rect x="600" y="195" width="130" height="40" rx="4" fill="#238636" fill-opacity="0.2" stroke="#238636" stroke-width="2"/>
    <text x="665" y="220" fill="#c9d1d9" font-family="monospace" font-size="11" text-anchor="middle">TextClient</text>



    <text x="600" y="370" fill="#2ea043" font-family="monospace" font-size="12" text-anchor="middle" font-style="italic">Type-Safe + Modular</text>

</svg>