<svg viewBox="0 0 600 400" xmlns="http://www.w3.org/2000/svg">
    <rect width="600" height="400" fill="#0d1117" />

    <defs>
        <marker id="arrow" markerWidth="10" markerHeight="10" refX="9" refY="3" orient="auto" markerUnits="strokeWidth">
            <path d="M0,0 L0,6 L9,3 z" fill="#8b949e" />
        </marker>
    </defs>

    <text x="300" y="40" fill="#ffffff" font-family="monospace" font-size="20" text-anchor="middle" font-weight="bold">FRONTEND ORCHESTRATION</text>

    <rect x="50" y="80" width="180" height="240" rx="4" fill="#d29922" fill-opacity="0.1" stroke="#d29922" stroke-width="2" stroke-dasharray="5,5"/>
    <text x="140" y="110" fill="#d29922" font-family="monospace" font-size="14" text-anchor="middle" font-weight="bold">Java Backend</text>

    <rect x="70" y="140" width="140" height="40" rx="2" fill="#d29922" fill-opacity="0.2"/>
    <text x="140" y="165" fill="#c9d1d9" font-family="monospace" font-size="12" text-anchor="middle">Object State</text>

    <rect x="70" y="200" width="140" height="40" rx="2" fill="#d29922" fill-opacity="0.2"/>
    <text x="140" y="225" fill="#c9d1d9" font-family="monospace" font-size="12" text-anchor="middle">CSS/JS Configs</text>

    <rect x="70" y="260" width="140" height="40" rx="2" fill="#d29922" fill-opacity="0.2"/>
    <text x="140" y="285" fill="#c9d1d9" font-family="monospace" font-size="12" text-anchor="middle">Route Logic</text>

    <circle cx="300" cy="200" r="40" fill="#1f6feb" fill-opacity="0.2" stroke="#58a6ff" stroke-width="2"/>
    <text x="300" y="195" fill="#58a6ff" font-family="monospace" font-size="12" text-anchor="middle" font-weight="bold">Thymeleaf</text>
    <text x="300" y="215" fill="#58a6ff" font-family="monospace" font-size="10" text-anchor="middle">Engine</text>

    <line x1="230" y1="200" x2="260" y2="200" stroke="#8b949e" stroke-width="2" marker-end="url(#arrow)"/>
    <line x1="340" y1="200" x2="370" y2="200" stroke="#8b949e" stroke-width="2" marker-end="url(#arrow)"/>

    <rect x="370" y="80" width="180" height="240" rx="4" fill="#2ea043" fill-opacity="0.1" stroke="#2ea043" stroke-width="2"/>
    <text x="460" y="110" fill="#2ea043" font-family="monospace" font-size="14" text-anchor="middle" font-weight="bold">Browser DOM</text>

    <rect x="390" y="140" width="140" height="40" rx="2" fill="#2ea043" fill-opacity="0.2"/>
    <text x="460" y="165" fill="#c9d1d9" font-family="monospace" font-size="12" text-anchor="middle">Rendered HTML</text>

    <rect x="390" y="200" width="140" height="40" rx="2" fill="#a371f7" fill-opacity="0.2" stroke="#a371f7"/>
    <text x="460" y="225" fill="#c9d1d9" font-family="monospace" font-size="12" text-anchor="middle">Coupled JS</text>

    <rect x="390" y="260" width="140" height="40" rx="2" fill="#f78166" fill-opacity="0.2" stroke="#f78166"/>
    <text x="460" y="285" fill="#c9d1d9" font-family="monospace" font-size="12" text-anchor="middle">Coupled CSS</text>

    <text x="300" y="370" fill="#8b949e" font-family="monospace" font-size="12" text-anchor="middle">Single Source of Truth: Java Objects dictate UI State</text>
</svg>