<svg viewBox="0 0 600 380" xmlns="http://www.w3.org/2000/svg">
    <rect width="600" height="380" fill="#0d1117" />

    <defs>
        <marker id="arrow-css" markerWidth="10" markerHeight="10" refX="9" refY="3" orient="auto" markerUnits="strokeWidth">
            <path d="M0,0 L0,6 L9,3 z" fill="#8b949e" />
        </marker>
    </defs>

    <text x="300" y="38" fill="#ffffff" font-family="monospace" font-size="18" text-anchor="middle" font-weight="bold">DOMAINS CSS PIPELINE</text>

    <rect x="40" y="70" width="160" height="240" rx="4" fill="#d29922" fill-opacity="0.1" stroke="#d29922" stroke-width="2"/>
    <text x="120" y="95" fill="#d29922" font-family="monospace" font-size="12" text-anchor="middle" font-weight="bold">CSS Domains</text>

    <rect x="55" y="120" width="130" height="36" rx="2" fill="#d29922" fill-opacity="0.2"/>
    <text x="120" y="142" fill="#c9d1d9" font-family="monospace" font-size="10" text-anchor="middle">dashboard_template.css</text>

    <rect x="55" y="170" width="130" height="36" rx="2" fill="#d29922" fill-opacity="0.2"/>
    <text x="120" y="192" fill="#c9d1d9" font-family="monospace" font-size="10" text-anchor="middle">popup_template.css</text>

    <rect x="55" y="220" width="130" height="36" rx="2" fill="#d29922" fill-opacity="0.2"/>
    <text x="120" y="242" fill="#c9d1d9" font-family="monospace" font-size="10" text-anchor="middle">header.css</text>

    <rect x="220" y="70" width="160" height="240" rx="4" fill="#1f6feb" fill-opacity="0.15" stroke="#58a6ff" stroke-width="2"/>
    <text x="300" y="95" fill="#58a6ff" font-family="monospace" font-size="12" text-anchor="middle" font-weight="bold">Java CSS Utils</text>

    <rect x="235" y="120" width="130" height="36" rx="2" fill="#1f6feb" fill-opacity="0.2"/>
    <text x="300" y="142" fill="#c9d1d9" font-family="monospace" font-size="10" text-anchor="middle">DashboardTemplateCss</text>

    <rect x="235" y="170" width="130" height="36" rx="2" fill="#1f6feb" fill-opacity="0.2"/>
    <text x="300" y="192" fill="#c9d1d9" font-family="monospace" font-size="10" text-anchor="middle">PopupTemplateCss</text>

    <rect x="235" y="220" width="130" height="36" rx="2" fill="#1f6feb" fill-opacity="0.2"/>
    <text x="300" y="242" fill="#c9d1d9" font-family="monospace" font-size="10" text-anchor="middle">HeaderCss</text>

    <rect x="400" y="70" width="160" height="240" rx="4" fill="#2ea043" fill-opacity="0.1" stroke="#2ea043" stroke-width="2"/>
    <text x="480" y="95" fill="#2ea043" font-family="monospace" font-size="12" text-anchor="middle" font-weight="bold">Thymeleaf Views</text>

    <rect x="415" y="120" width="130" height="36" rx="2" fill="#2ea043" fill-opacity="0.2"/>
    <text x="480" y="142" fill="#c9d1d9" font-family="monospace" font-size="10" text-anchor="middle">dashboardTemplateCss</text>

    <rect x="415" y="170" width="130" height="36" rx="2" fill="#2ea043" fill-opacity="0.2"/>
    <text x="480" y="192" fill="#c9d1d9" font-family="monospace" font-size="10" text-anchor="middle">th:class join(...)</text>

    <rect x="415" y="220" width="130" height="36" rx="2" fill="#2ea043" fill-opacity="0.2"/>
    <text x="480" y="242" fill="#c9d1d9" font-family="monospace" font-size="10" text-anchor="middle">data-* hooks</text>

    <line x1="200" y1="190" x2="220" y2="190" stroke="#8b949e" stroke-width="2" marker-end="url(#arrow-css)"/>
    <line x1="380" y1="190" x2="400" y2="190" stroke="#8b949e" stroke-width="2" marker-end="url(#arrow-css)"/>

    <rect x="220" y="320" width="160" height="40" rx="4" fill="#f78166" fill-opacity="0.18" stroke="#f78166" stroke-width="2"/>
    <text x="300" y="344" fill="#c9d1d9" font-family="monospace" font-size="10" text-anchor="middle">Minimal JS handlers (data-*)</text>

    <line x1="480" y1="310" x2="300" y2="320" stroke="#8b949e" stroke-width="2" marker-end="url(#arrow-css)"/>
</svg>
