<svg viewBox="0 0 600 380" xmlns="http://www.w3.org/2000/svg">
    <rect width="600" height="380" fill="#0d1117" />

    <defs>
        <marker id="arrow-pop" markerWidth="10" markerHeight="10" refX="9" refY="3" orient="auto" markerUnits="strokeWidth">
            <path d="M0,0 L0,6 L9,3 z" fill="#8b949e" />
        </marker>
    </defs>

    <text x="300" y="38" fill="#ffffff" font-family="monospace" font-size="18" text-anchor="middle" font-weight="bold">POPUP / MODAL FLOW</text>

    <rect x="40" y="70" width="230" height="260" rx="4" fill="#1f6feb" fill-opacity="0.15" stroke="#58a6ff" stroke-width="2"/>
    <text x="155" y="95" fill="#58a6ff" font-family="monospace" font-size="12" text-anchor="middle" font-weight="bold">scan-modal shell</text>

    <rect x="60" y="120" width="190" height="40" rx="3" fill="#1f6feb" fill-opacity="0.2"/>
    <text x="155" y="145" fill="#c9d1d9" font-family="monospace" font-size="10" text-anchor="middle">backdrop layer</text>

    <rect x="60" y="175" width="190" height="40" rx="3" fill="#1f6feb" fill-opacity="0.2"/>
    <text x="155" y="200" fill="#c9d1d9" font-family="monospace" font-size="10" text-anchor="middle">panel container</text>

    <rect x="60" y="230" width="190" height="40" rx="3" fill="#1f6feb" fill-opacity="0.2"/>
    <text x="155" y="255" fill="#c9d1d9" font-family="monospace" font-size="10" text-anchor="middle">iframe or camera view</text>

    <rect x="330" y="80" width="230" height="110" rx="4" fill="#2ea043" fill-opacity="0.1" stroke="#2ea043" stroke-width="2"/>
    <text x="445" y="105" fill="#2ea043" font-family="monospace" font-size="12" text-anchor="middle" font-weight="bold">Detail Popup</text>
    <text x="445" y="130" fill="#c9d1d9" font-family="monospace" font-size="10" text-anchor="middle">Label / Route iframe</text>
    <text x="445" y="150" fill="#c9d1d9" font-family="monospace" font-size="10" text-anchor="middle">postMessage close + resize</text>

    <rect x="330" y="220" width="230" height="110" rx="4" fill="#f78166" fill-opacity="0.12" stroke="#f78166" stroke-width="2"/>
    <text x="445" y="245" fill="#f78166" font-family="monospace" font-size="12" text-anchor="middle" font-weight="bold">Camera Popup</text>
    <text x="445" y="270" fill="#c9d1d9" font-family="monospace" font-size="10" text-anchor="middle">Full-size camera frame</text>
    <text x="445" y="290" fill="#c9d1d9" font-family="monospace" font-size="10" text-anchor="middle">Shared modal scaffold</text>

    <line x1="270" y1="135" x2="330" y2="135" stroke="#8b949e" stroke-width="2" marker-end="url(#arrow-pop)"/>
    <line x1="270" y1="270" x2="330" y2="270" stroke="#8b949e" stroke-width="2" marker-end="url(#arrow-pop)"/>
</svg>
