<svg viewBox="0 0 800 450" xmlns="http://www.w3.org/2000/svg">
    <rect width="800" height="450" fill="#0d1117" />
    <defs>
        <marker id="arrow" markerWidth="10" markerHeight="10" refX="9" refY="3" orient="auto" markerUnits="strokeWidth">
            <path d="M0,0 L0,6 L9,3 z" fill="#58a6ff" />
        </marker>
    </defs>

    <text x="400" y="40" fill="#ffffff" font-family="monospace" font-size="20" text-anchor="middle" font-weight="bold">LOGIN ROUTING LOGIC</text>

    <circle cx="100" cy="225" r="40" fill="#1f6feb" stroke="#58a6ff" stroke-width="2"/>
    <text x="100" y="230" fill="#ffffff" font-family="monospace" font-size="12" text-anchor="middle" font-weight="bold">LOGIN</text>
    <text x="100" y="285" fill="#8b949e" font-family="monospace" font-size="10" text-anchor="middle">/dashboard/login</text>

    <rect x="200" y="190" width="150" height="70" rx="4" fill="#21262d" stroke="#58a6ff" stroke-width="2"/>
    <text x="275" y="220" fill="#58a6ff" font-family="monospace" font-size="12" text-anchor="middle" font-weight="bold">AUTH SERVICE</text>
    <text x="275" y="240" fill="#c9d1d9" font-family="monospace" font-size="10" text-anchor="middle">Check Role</text>

    <line x1="140" y1="225" x2="200" y2="225" stroke="#58a6ff" stroke-width="2" marker-end="url(#arrow)"/>

    <line x1="350" y1="225" x2="400" y2="225" stroke="#58a6ff" stroke-width="2"/>
    <line x1="400" y1="100" x2="400" y2="350" stroke="#58a6ff" stroke-width="2"/>

    <line x1="400" y1="100" x2="480" y2="100" stroke="#a371f7" stroke-width="2" marker-end="url(#arrow)"/>
    <rect x="480" y="70" width="250" height="60" rx="4" fill="#161b22" stroke="#a371f7" stroke-width="2"/>
    <text x="605" y="100" fill="#a371f7" font-family="monospace" font-size="14" text-anchor="middle" font-weight="bold">ADMIN DASHBOARD</text>
    <text x="605" y="120" fill="#8b949e" font-family="monospace" font-size="10" text-anchor="middle">SuperUser / System</text>

    <line x1="400" y1="225" x2="480" y2="225" stroke="#d29922" stroke-width="2" marker-end="url(#arrow)"/>
    <rect x="480" y="195" width="250" height="60" rx="4" fill="#161b22" stroke="#d29922" stroke-width="2"/>
    <text x="605" y="225" fill="#d29922" font-family="monospace" font-size="14" text-anchor="middle" font-weight="bold">MERCHANT DASHBOARD</text>
    <text x="605" y="245" fill="#8b949e" font-family="monospace" font-size="10" text-anchor="middle">Merchant Account</text>

    <line x1="400" y1="350" x2="480" y2="350" stroke="#238636" stroke-width="2" marker-end="url(#arrow)"/>
    <rect x="480" y="320" width="250" height="60" rx="4" fill="#161b22" stroke="#238636" stroke-width="2"/>
    <text x="605" y="350" fill="#238636" font-family="monospace" font-size="14" text-anchor="middle" font-weight="bold">DRIVER DASHBOARD</text>
    <text x="605" y="370" fill="#8b949e" font-family="monospace" font-size="10" text-anchor="middle">Driver Account</text>

</svg>