<svg viewBox="0 0 800 700" xmlns="http://www.w3.org/2000/svg">
    <rect width="800" height="700" fill="#0d1117" />
    <defs>
        <marker id="arrow" markerWidth="10" markerHeight="10" refX="9" refY="3" orient="auto" markerUnits="strokeWidth">
            <path d="M0,0 L0,6 L9,3 z" fill="#58a6ff" />
        </marker>
    </defs>

    <text x="400" y="40" fill="#ffffff" font-family="monospace" font-size="20" text-anchor="middle" font-weight="bold">COST-EFFICIENT VERIFICATION</text>

    <rect x="300" y="70" width="200" height="50" rx="4" fill="#21262d" stroke="#58a6ff" stroke-width="2"/>
    <text x="400" y="100" fill="#c9d1d9" font-family="monospace" font-size="14" text-anchor="middle">LABEL DATA EXTRACTED</text>

    <line x1="400" y1="120" x2="400" y2="160" stroke="#58a6ff" stroke-width="2" marker-end="url(#arrow)"/>

    <rect x="300" y="160" width="200" height="60" rx="4" fill="#1f6feb" fill-opacity="0.2" stroke="#58a6ff" stroke-width="2"/>
    <text x="400" y="185" fill="#58a6ff" font-family="monospace" font-size="14" text-anchor="middle" font-weight="bold">TIER 1 CHECK</text>
    <text x="400" y="205" fill="#58a6ff" font-family="monospace" font-size="10" text-anchor="middle">Gemini 3 Flash (LiveAPI)</text>

    <line x1="400" y1="220" x2="400" y2="260" stroke="#58a6ff" stroke-width="2" marker-end="url(#arrow)"/>

    <polygon points="400,260 550,335 400,410 250,335" fill="#d29922" stroke="#d29922" stroke-width="2" fill-opacity="0.2"/>
    <text x="400" y="340" fill="#e3b341" font-family="monospace" font-size="12" text-anchor="middle">ADDRESS VALID?</text>

    <line x1="550" y1="335" x2="650" y2="335" stroke="#238636" stroke-width="2" marker-end="url(#arrow)"/>
    <rect x="650" y="310" width="130" height="50" rx="4" fill="#238636" stroke="#2ea043" stroke-width="2"/>
    <text x="715" y="340" fill="#ffffff" font-family="monospace" font-size="14" text-anchor="middle">CREATE LABEL</text>

    <line x1="400" y1="410" x2="400" y2="470" stroke="#ff7b72" stroke-width="2" marker-end="url(#arrow)"/>
    <text x="410" y="440" fill="#ff7b72" font-family="monospace" font-size="12" text-anchor="start">PRE-ROUTE BUILD CHECK</text>

    <rect x="300" y="470" width="200" height="60" rx="4" fill="#a371f7" fill-opacity="0.2" stroke="#a371f7" stroke-width="2"/>
    <text x="400" y="495" fill="#a371f7" font-family="monospace" font-size="14" text-anchor="middle" font-weight="bold">TIER 2 CHECK</text>
    <text x="400" y="515" fill="#a371f7" font-family="monospace" font-size="10" text-anchor="middle">Gemini 3 Flash (Multimodal)</text>

    <line x1="400" y1="530" x2="400" y2="570" stroke="#a371f7" stroke-width="2" marker-end="url(#arrow)"/>

    <polygon points="400,570 500,620 400,670 300,620" fill="#d29922" stroke="#d29922" stroke-width="2" fill-opacity="0.2"/>
    <text x="400" y="625" fill="#e3b341" font-family="monospace" font-size="12" text-anchor="middle">VALID?</text>

    <line x1="500" y1="620" x2="650" y2="620" stroke="#238636" stroke-width="2" />
    <line x1="650" y1="620" x2="650" y2="360" stroke="#238636" stroke-width="2" marker-end="url(#arrow)"/>

    <line x1="300" y1="620" x2="150" y2="620" stroke="#ff7b72" stroke-width="2" marker-end="url(#arrow)"/>
    <rect x="10" y="595" width="140" height="50" rx="4" fill="#4c0519" stroke="#ff7b72" stroke-width="2"/>
    <text x="80" y="625" fill="#ff7b72" font-family="monospace" font-size="14" text-anchor="middle">REJECT SCAN</text>

</svg>