<svg viewBox="0 0 800 400" xmlns="http://www.w3.org/2000/svg">
    <rect width="800" height="400" fill="#0d1117" />
    <defs>
        <marker id="arrow" markerWidth="10" markerHeight="10" refX="9" refY="3" orient="auto" markerUnits="strokeWidth">
            <path d="M0,0 L0,6 L9,3 z" fill="#58a6ff" />
        </marker>
    </defs>

    <text x="400" y="40" fill="#ffffff" font-family="monospace" font-size="20" text-anchor="middle" font-weight="bold">DATA STORAGE ARCHITECTURE</text>

    <rect x="250" y="80" width="300" height="60" rx="4" fill="#161b22" stroke="#58a6ff" stroke-width="2"/>
    <text x="400" y="115" fill="#58a6ff" font-family="monospace" font-size="14" text-anchor="middle" font-weight="bold">SPRING WEB APP</text>

    <rect x="250" y="180" width="300" height="80" rx="4" fill="#238636" fill-opacity="0.2" stroke="#238636" stroke-width="2"/>
    <text x="400" y="215" fill="#2ea043" font-family="monospace" font-size="14" text-anchor="middle" font-weight="bold">IN-MEMORY CACHE</text>
    <text x="400" y="235" fill="#8b949e" font-family="monospace" font-size="12" text-anchor="middle">AbstractCache.java</text>

    <path d="M 250 320 L 550 320 L 550 380 L 250 380 Z" fill="#161b22" stroke="#d29922" stroke-width="2"/>
    <path d="M 250 320 Q 400 300 550 320" fill="#161b22" stroke="#d29922" stroke-width="2"/>
    <text x="400" y="355" fill="#d29922" font-family="monospace" font-size="14" text-anchor="middle" font-weight="bold">POSTGRESQL</text>
    <text x="400" y="375" fill="#8b949e" font-family="monospace" font-size="12" text-anchor="middle">Persistent Storage</text>

    <line x1="380" y1="140" x2="380" y2="180" stroke="#58a6ff" stroke-width="2" marker-end="url(#arrow)"/>
    <line x1="420" y1="180" x2="420" y2="140" stroke="#58a6ff" stroke-width="2" marker-end="url(#arrow)"/>
    <text x="460" y="165" fill="#58a6ff" font-family="monospace" font-size="10">Fast Access</text>

    <line x1="400" y1="260" x2="400" y2="310" stroke="#d29922" stroke-width="2" stroke-dasharray="4" marker-end="url(#arrow)"/>
    <text x="410" y="290" fill="#d29922" font-family="monospace" font-size="10" text-anchor="start">Rehydrate / Persist</text>

</svg>