<svg viewBox="0 0 800 500" xmlns="http://www.w3.org/2000/svg">
  <rect width="800" height="500" fill="#0d1117" />

  <text x="400" y="40" fill="#ffffff" font-family="monospace" font-size="20" text-anchor="middle" font-weight="bold">THE STACK</text>
  <text x="400" y="65" fill="#8b949e" font-family="monospace" font-size="12" text-anchor="middle">Bleeding Edge Backend / minimalist Frontend</text>

  <rect x="200" y="100" width="400" height="100" rx="4" fill="#161b22" stroke="#d29922" stroke-width="2"/>
  <text x="400" y="130" fill="#d29922" font-family="monospace" font-size="16" text-anchor="middle" font-weight="bold">FRONTEND (SSR)</text>

  <rect x="220" y="145" width="100" height="40" rx="4" fill="#d29922" fill-opacity="0.2"/>
  <text x="270" y="170" fill="#e3b341" font-family="monospace" font-size="12" text-anchor="middle">Thymeleaf</text>

  <rect x="330" y="145" width="120" height="40" rx="4" fill="#d29922" fill-opacity="0.2"/>
  <text x="390" y="170" fill="#e3b341" font-family="monospace" font-size="12" text-anchor="middle">Raw CSS/JS</text>

  <rect x="460" y="145" width="120" height="40" rx="4" fill="#4c0519" stroke="#ff7b72" stroke-width="1"/>
  <text x="520" y="165" fill="#ff7b72" font-family="monospace" font-size="10" text-anchor="middle" font-weight="bold">NO NPM</text>
  <text x="520" y="180" fill="#ff7b72" font-family="monospace" font-size="9" text-anchor="middle">0 Dependencies</text>

  <line x1="400" y1="200" x2="400" y2="230" stroke="#30363d" stroke-width="2"/>

  <rect x="200" y="230" width="400" height="120" rx="4" fill="#161b22" stroke="#238636" stroke-width="2"/>
  <text x="400" y="260" fill="#238636" font-family="monospace" font-size="16" text-anchor="middle" font-weight="bold">BACKEND CORE</text>

  <rect x="230" y="280" width="150" height="50" rx="4" fill="#238636" fill-opacity="0.2"/>
  <text x="305" y="305" fill="#2ea043" font-family="monospace" font-size="14" text-anchor="middle" font-weight="bold">JAVA 25</text>
  <text x="305" y="320" fill="#2ea043" font-family="monospace" font-size="10" text-anchor="middle">(Preview Features)</text>

  <rect x="420" y="280" width="150" height="50" rx="4" fill="#238636" fill-opacity="0.2"/>
  <text x="495" y="305" fill="#2ea043" font-family="monospace" font-size="14" text-anchor="middle" font-weight="bold">SPRING BOOT 4</text>
  <text x="495" y="320" fill="#2ea043" font-family="monospace" font-size="10" text-anchor="middle">(v4.0.2)</text>

  <line x1="400" y1="350" x2="400" y2="380" stroke="#30363d" stroke-width="2"/>

  <rect x="200" y="380" width="400" height="80" rx="4" fill="#161b22" stroke="#58a6ff" stroke-width="2"/>
  <text x="400" y="410" fill="#58a6ff" font-family="monospace" font-size="16" text-anchor="middle" font-weight="bold">PERSISTENCE</text>

  <rect x="300" y="420" width="200" height="30" rx="4" fill="#1f6feb" fill-opacity="0.2"/>
  <text x="400" y="440" fill="#58a6ff" font-family="monospace" font-size="14" text-anchor="middle">PostgreSQL</text>

</svg>