<svg viewBox="0 0 800 450" xmlns="http://www.w3.org/2000/svg">
    <rect width="800" height="450" fill="#0d1117" />
    <defs>
        <marker id="arrow" markerWidth="10" markerHeight="10" refX="9" refY="3" orient="auto" markerUnits="strokeWidth">
            <path d="M0,0 L0,6 L9,3 z" fill="#58a6ff" />
        </marker>
        <marker id="arrow-red" markerWidth="10" markerHeight="10" refX="9" refY="3" orient="auto" markerUnits="strokeWidth">
            <path d="M0,0 L0,6 L9,3 z" fill="#ff7b72" />
        </marker>
    </defs>

    <text x="400" y="40" fill="#ffffff" font-family="monospace" font-size="20" text-anchor="middle" font-weight="bold">WEBSITE SECURITY ARCHITECTURE</text>

    <rect x="50" y="80" width="120" height="300" rx="4" fill="#161b22" stroke="#30363d" stroke-width="2" stroke-dasharray="5"/>
    <text x="110" y="110" fill="#8b949e" font-family="monospace" font-size="14" text-anchor="middle" font-weight="bold">PUBLIC</text>
    <text x="110" y="130" fill="#8b949e" font-family="monospace" font-size="12" text-anchor="middle">INTERNET</text>

    <circle cx="110" cy="230" r="20" fill="#58a6ff" />
    <text x="110" y="270" fill="#c9d1d9" font-family="monospace" font-size="12" text-anchor="middle">User</text>

    <line x1="140" y1="230" x2="220" y2="230" stroke="#58a6ff" stroke-width="3" marker-end="url(#arrow)"/>
    <text x="180" y="220" fill="#58a6ff" font-family="monospace" font-size="10" text-anchor="middle">TLS 1.3</text>

    <rect x="230" y="150" width="140" height="160" rx="4" fill="#d29922" fill-opacity="0.1" stroke="#d29922" stroke-width="2"/>
    <text x="300" y="180" fill="#d29922" font-family="monospace" font-size="14" text-anchor="middle" font-weight="bold">CLOUDFLARE</text>
    <text x="300" y="200" fill="#d29922" font-family="monospace" font-size="10" text-anchor="middle">Proxy and WAF</text>
    <path d="M 270 230 Q 300 210 330 230 Q 300 250 270 230" fill="#d29922" />

    <line x1="370" y1="230" x2="450" y2="230" stroke="#58a6ff" stroke-width="3" marker-end="url(#arrow)"/>
    <text x="410" y="220" fill="#58a6ff" font-family="monospace" font-size="10" text-anchor="middle">HTTPS / 443</text>

    <rect x="460" y="80" width="300" height="300" rx="4" fill="#161b22" stroke="#238636" stroke-width="2"/>
    <text x="610" y="110" fill="#238636" font-family="monospace" font-size="14" text-anchor="middle" font-weight="bold">SERVER INFRASTRUCTURE</text>

    <rect x="480" y="150" width="100" height="160" rx="4" fill="#4c0519" stroke="#ff7b72" stroke-width="2"/>
    <text x="530" y="180" fill="#ff7b72" font-family="monospace" font-size="14" text-anchor="middle" font-weight="bold">APACHE</text>
    <text x="530" y="200" fill="#ff7b72" font-family="monospace" font-size="10" text-anchor="middle">Reverse Proxy</text>
    <text x="530" y="220" fill="#ff7b72" font-family="monospace" font-size="10" text-anchor="middle">Port 80/443</text>

    <line x1="580" y1="230" x2="630" y2="230" stroke="#238636" stroke-width="2" marker-end="url(#arrow)" stroke-dasharray="4"/>
    <text x="605" y="220" fill="#8b949e" font-family="monospace" font-size="10" text-anchor="middle">Localhost</text>

    <rect x="640" y="150" width="100" height="160" rx="4" fill="#238636" fill-opacity="0.2" stroke="#238636" stroke-width="2"/>
    <text x="690" y="180" fill="#2ea043" font-family="monospace" font-size="14" text-anchor="middle" font-weight="bold">SPRING</text>
    <text x="690" y="200" fill="#2ea043" font-family="monospace" font-size="10" text-anchor="middle">Backend App</text>
    <text x="690" y="220" fill="#2ea043" font-family="monospace" font-size="10" text-anchor="middle">Port 8080</text>

    <path d="M 140 320 L 650 320 L 650 310" stroke="#ff7b72" stroke-width="2" fill="none" stroke-dasharray="5"/>
    <rect x="630" y="305" width="40" height="10" fill="#ff7b72" />
    <text x="400" y="340" fill="#ff7b72" font-family="monospace" font-size="12" text-anchor="middle">Direct Access to :8080 BLOCKED by Firewall</text>

    <rect x="300" y="400" width="200" height="30" rx="4" fill="#21262d"/>
    <text x="400" y="420" fill="#8b949e" font-family="monospace" font-size="12" text-anchor="middle">Status: PORTS LOCKED DOWN</text>

</svg>